<svg id="splitsvg" version="1.1" xmlns="http://www.w3.org/2000/svg" xmlns:xlink="http://www.w3.org/1999/xlink" width="1380" height="885"><g id="svgg"><path id="path0" d="M74.795 21.000 C 73.921 21.559,73.739 21.571,65.261 21.604 C 57.703 21.634,56.567 21.690,56.209 22.048 C 55.850 22.407,55.807 23.377,55.856 30.054 C 55.927 39.756,55.846 40.119,53.507 40.557 C 50.980 41.029,50.831 42.598,53.272 43.027 C 55.423 43.404,55.917 44.356,55.867 48.024 C 55.829 50.787,55.573 50.399,60.921 55.667 C 66.678 61.337,67.651 61.905,71.596 61.896 C 74.732 61.888,75.804 61.453,79.386 58.731 C 85.186 54.326,89.240 53.800,93.412 56.913 C 94.812 57.958,95.549 58.181,95.872 57.658 C 96.165 57.183,96.019 30.059,95.722 29.761 C 95.578 29.618,94.974 29.267,94.380 28.981 C 93.564 28.589,93.139 28.149,92.645 27.187 C 92.149 26.222,91.674 25.732,90.687 25.169 C 89.764 24.642,89.256 24.141,88.945 23.452 C 88.128 21.640,88.081 21.625,83.027 21.596 C 78.795 21.572,78.433 21.532,77.570 20.996 C 76.418 20.279,75.920 20.280,74.795 21.000 M93.540 32.220 C 94.051 32.950,94.144 52.108,93.641 53.211 C 93.287 53.988,93.226 53.991,91.201 53.356 C 86.889 52.005,81.913 53.397,77.884 57.084 C 77.304 57.615,75.404 58.635,74.027 59.155 C 71.093 60.263,66.483 58.848,65.852 56.645 C 65.506 55.440,65.521 32.795,65.867 32.147 C 66.123 31.668,66.546 31.653,79.637 31.653 L 93.143 31.653 93.540 32.220 M164.952 35.788 C 164.183 36.557,164.765 38.034,165.837 38.034 C 166.824 38.034,167.286 36.626,166.542 35.883 C 166.064 35.405,165.376 35.364,164.952 35.788 M32.210 63.203 C 28.904 64.850,28.637 68.171,31.560 71.264 C 33.121 72.916,33.160 73.053,32.303 73.911 C 31.692 74.522,31.578 74.537,27.757 74.537 C 24.663 74.537,23.733 74.618,23.342 74.920 C 22.264 75.753,23.445 76.069,27.630 76.069 C 33.467 76.069,33.567 76.174,33.567 82.298 C 33.567 86.749,33.540 86.914,31.340 95.724 C 29.960 101.250,29.861 102.178,30.661 102.063 C 31.274 101.976,31.476 101.466,32.797 96.672 C 33.841 92.884,35.081 93.529,36.376 98.532 C 37.158 101.549,37.565 102.361,38.296 102.361 C 39.146 102.361,39.082 101.635,37.777 96.490 C 35.314 86.781,35.227 86.291,35.227 82.163 C 35.227 76.294,35.446 76.069,41.192 76.069 C 45.071 76.069,45.692 75.978,45.692 75.412 C 45.692 74.733,44.663 74.537,41.102 74.537 C 35.623 74.537,34.678 73.706,37.285 71.179 C 41.699 66.902,37.627 60.503,32.210 63.203 M36.849 63.794 C 39.428 65.388,39.437 68.311,36.871 71.001 C 35.232 72.720,35.125 73.362,36.288 74.499 L 37.095 75.288 35.714 76.668 L 34.333 78.047 33.095 76.674 L 31.858 75.300 32.649 74.399 C 33.747 73.149,33.660 72.750,31.882 70.849 C 30.154 69.002,29.720 67.883,30.132 66.338 C 30.884 63.517,34.304 62.221,36.849 63.794 M32.815 65.667 C 31.774 66.583,31.706 67.666,32.624 68.694 C 34.118 70.366,36.758 69.465,36.758 67.283 C 36.758 65.381,34.290 64.370,32.815 65.667 M35.425 66.256 C 36.859 67.260,35.358 69.377,33.754 68.612 C 32.896 68.203,32.684 67.063,33.332 66.346 C 33.868 65.755,34.661 65.721,35.425 66.256 M340.706 81.878 C 340.529 83.373,338.883 87.685,337.264 90.897 C 327.791 109.687,310.158 121.698,288.960 123.800 C 286.013 124.092,284.721 124.380,284.798 124.726 C 284.826 124.850,285.076 125.526,285.354 126.228 C 292.200 143.535,292.771 158.148,287.183 172.978 C 285.498 177.448,285.697 178.226,289.523 182.165 C 297.999 190.892,308.843 196.629,321.378 199.018 C 328.348 200.347,339.935 200.075,344.735 198.471 C 345.718 198.143,347.595 197.572,348.906 197.203 C 367.106 192.079,382.449 177.231,388.489 158.896 C 399.372 125.856,380.096 90.770,346.407 82.300 C 344.505 81.822,342.515 81.258,341.986 81.047 C 341.457 80.836,340.984 80.664,340.937 80.664 C 340.889 80.664,340.785 81.210,340.706 81.878 M49.075 82.875 C 48.530 83.095,48.721 83.977,49.377 84.276 C 50.103 84.607,50.741 84.426,50.973 83.823 C 51.253 83.092,50.039 82.486,49.075 82.875 M35.222 87.985 C 35.520 88.782,35.935 90.591,36.144 92.005 C 36.353 93.419,36.864 95.849,37.279 97.405 C 38.076 100.391,38.166 100.941,37.822 100.729 C 37.706 100.657,37.462 99.932,37.282 99.118 C 36.283 94.624,35.469 93.283,33.854 93.472 C 32.618 93.616,32.407 91.115,33.434 88.480 C 33.578 88.112,33.807 87.524,33.944 87.173 C 34.323 86.202,34.627 86.395,35.222 87.985 M95.456 127.401 C 94.886 128.467,95.839 129.908,96.857 129.518 C 97.475 129.281,97.628 128.231,97.151 127.503 C 96.642 126.727,95.843 126.679,95.456 127.401  M -25 0 L -5 0 L -5 20 L -25 20 Z M 405 0 L 425 0 L 425 20 L 405 20 Z" stroke="none" fill="#89bdd2" fill-rule="evenodd" transform="translate(30,0)"></path><path id="path1" d="M32.526 63.519 C 29.423 64.974,29.163 67.942,31.882 70.849 C 33.660 72.750,33.747 73.149,32.649 74.399 L 31.858 75.300 33.095 76.674 L 34.333 78.047 35.714 76.668 L 37.095 75.288 36.288 74.499 C 35.125 73.362,35.232 72.720,36.871 71.001 C 40.780 66.902,37.470 61.202,32.526 63.519 M36.085 65.766 C 37.528 67.208,36.566 69.469,34.486 69.524 C 33.022 69.562,31.768 68.303,32.010 67.038 C 32.368 65.172,34.748 64.429,36.085 65.766 M325.973 80.315 C 307.409 82.619,291.822 92.061,281.995 106.956 C 277.837 113.257,277.747 113.975,280.598 118.098 C 281.360 119.200,282.586 121.097,283.322 122.312 C 284.652 124.508,284.665 124.521,285.455 124.294 C 285.893 124.169,287.463 123.946,288.945 123.800 C 312.095 121.516,331.293 107.088,339.519 85.793 C 341.011 81.929,341.112 80.785,339.981 80.560 C 338.966 80.358,327.273 80.154,325.973 80.315 M33.944 87.173 C 33.807 87.524,33.578 88.112,33.434 88.480 C 32.407 91.115,32.618 93.616,33.854 93.472 C 35.469 93.283,36.283 94.624,37.282 99.118 C 37.462 99.932,37.706 100.657,37.822 100.729 C 38.166 100.941,38.076 100.391,37.279 97.405 C 36.864 95.849,36.353 93.419,36.144 92.005 C 35.533 87.868,34.531 85.668,33.944 87.173  M -25 0 L -5 0 L -5 20 L -25 20 Z M 405 0 L 425 0 L 425 20 L 405 20 Z" stroke="none" fill="#827190" fill-rule="evenodd" transform="translate(490,0)"></path><path id="path2" d="M0.000 127.632 L 0.000 255.265 200.000 255.265 L 400.000 255.265 400.000 127.632 L 400.000 0.000 200.000 0.000 L 0.000 0.000 0.000 127.632 M287.811 3.578 C 324.723 6.208,350.521 39.992,343.430 76.416 C 342.638 80.486,342.555 80.352,346.475 81.314 C 360.913 84.855,374.079 94.062,382.233 106.318 C 404.648 140.009,388.990 185.002,350.390 197.820 C 347.262 198.859,346.368 199.589,345.777 201.590 C 340.886 218.147,332.898 229.360,320.102 237.632 C 291.869 255.882,253.228 246.949,236.413 218.285 C 232.817 212.156,232.981 212.284,228.462 212.034 C 201.309 210.534,178.223 190.317,173.095 163.548 C 166.542 129.348,189.999 97.029,224.645 92.522 C 229.470 91.894,229.414 92.017,227.301 86.737 C 211.886 48.207,238.865 6.119,280.664 3.491 C 283.386 3.320,284.355 3.331,287.811 3.578 M114.825 5.462 C 115.626 6.263,114.225 7.142,112.142 7.146 C 110.529 7.149,109.284 6.249,109.962 5.571 C 110.710 4.822,114.109 4.746,114.825 5.462 M122.766 5.297 C 123.714 6.066,122.955 6.714,120.963 6.836 C 118.482 6.989,116.867 6.074,118.067 5.196 C 118.796 4.663,122.072 4.734,122.766 5.297 M130.303 5.357 C 132.917 6.351,129.373 7.816,126.649 6.867 C 125.810 6.575,125.497 5.544,126.165 5.274 C 126.740 5.042,129.627 5.100,130.303 5.357 M106.556 5.610 C 108.035 6.172,106.924 7.282,104.610 7.554 C 102.900 7.755,101.968 7.567,101.742 6.977 C 101.305 5.839,104.657 4.887,106.556 5.610 M137.563 6.274 C 139.648 7.108,139.086 8.300,136.702 8.101 C 134.303 7.901,133.058 7.098,133.786 6.222 C 134.182 5.743,136.311 5.773,137.563 6.274 M99.047 6.769 C 99.781 7.654,97.829 8.675,95.397 8.678 C 94.086 8.679,93.618 8.226,94.113 7.432 C 94.706 6.479,98.395 5.984,99.047 6.769 M145.344 8.492 C 147.480 9.671,146.273 10.678,143.736 9.835 C 142.314 9.363,141.534 8.640,141.774 8.016 C 141.994 7.441,143.898 7.695,145.344 8.492 M91.079 8.727 C 91.185 9.284,90.155 9.952,88.547 10.369 C 87.053 10.757,86.478 10.607,86.585 9.859 C 86.766 8.592,90.858 7.561,91.079 8.727 M152.417 11.502 C 154.097 12.580,154.475 14.040,153.074 14.040 C 152.267 14.040,149.445 12.306,149.049 11.567 C 148.316 10.196,150.322 10.158,152.417 11.502 M83.433 11.202 C 84.086 11.616,83.593 12.384,81.980 13.465 C 80.130 14.706,79.387 14.848,79.387 13.962 C 79.387 12.703,82.476 10.596,83.433 11.202 M157.427 15.308 C 159.286 16.442,160.376 18.917,159.097 19.098 C 158.414 19.195,155.783 16.839,155.554 15.926 C 155.255 14.734,156.053 14.471,157.427 15.308 M77.930 17.236 C 77.901 17.795,77.853 18.571,77.824 18.962 C 77.731 20.197,78.042 20.284,83.049 20.421 C 88.396 20.568,88.710 20.674,89.659 22.659 C 90.120 23.625,90.483 23.985,91.470 24.456 C 92.498 24.947,92.797 25.259,93.271 26.332 C 93.758 27.436,94.036 27.715,95.228 28.296 C 97.353 29.331,97.285 28.773,97.201 44.436 C 97.113 60.645,97.183 60.403,93.327 57.991 C 89.086 55.338,85.649 55.475,81.521 58.462 C 77.545 61.340,76.666 61.883,75.066 62.448 C 69.907 64.269,66.776 62.936,59.922 56.003 C 54.705 50.724,54.683 50.688,54.647 47.081 C 54.623 44.672,54.415 44.309,52.840 43.938 C 52.208 43.789,50.944 43.482,50.032 43.256 C 49.119 43.030,48.109 42.793,47.787 42.730 C 46.306 42.437,46.947 41.205,48.713 40.951 C 49.368 40.856,50.561 40.506,51.364 40.173 C 52.167 39.839,53.029 39.564,53.279 39.562 C 54.496 39.552,54.491 39.587,54.636 30.705 C 54.820 19.402,53.578 20.592,65.373 20.421 C 75.181 20.279,74.654 20.383,75.561 18.430 C 76.696 15.990,78.031 15.317,77.930 17.236 M162.839 22.137 C 164.291 23.898,164.531 26.037,163.277 26.037 C 162.547 26.037,162.024 25.482,161.347 23.990 C 160.166 21.386,161.181 20.126,162.839 22.137 M165.764 29.864 C 165.991 30.432,166.177 31.511,166.177 32.261 C 166.177 33.392,166.308 33.789,166.943 34.588 C 167.947 35.852,168.004 37.387,167.083 38.380 C 165.162 40.452,162.676 37.506,164.101 34.847 C 164.566 33.979,164.566 33.911,164.097 31.976 C 163.268 28.552,164.576 26.895,165.764 29.864 M44.110 41.659 C 45.016 42.565,43.658 43.395,41.269 43.395 C 39.064 43.395,38.201 42.292,39.879 41.618 C 40.743 41.271,43.751 41.300,44.110 41.659 M36.240 42.519 C 36.850 43.117,35.862 43.866,34.007 44.211 C 32.188 44.549,31.142 44.257,31.142 43.409 C 31.142 42.168,35.164 41.466,36.240 42.519 M28.338 43.783 C 29.003 44.584,26.578 45.948,24.490 45.948 C 23.460 45.948,22.809 44.227,23.812 44.157 C 23.843 44.155,24.327 43.988,24.888 43.785 C 26.255 43.293,27.931 43.292,28.338 43.783 M20.801 45.942 C 21.297 46.746,18.575 48.500,16.832 48.500 C 15.214 48.500,15.776 47.070,17.741 46.187 C 18.861 45.684,20.557 45.548,20.801 45.942 M13.784 49.781 C 13.784 50.382,11.799 52.369,10.632 52.936 C 8.593 53.928,8.910 51.711,11.041 50.072 C 12.310 49.097,13.784 48.941,13.784 49.781 M190.695 51.436 C 191.692 52.419,192.671 53.533,192.871 53.912 C 193.416 54.942,193.407 74.143,192.862 75.448 C 192.146 77.160,192.862 77.107,171.541 77.031 L 152.405 76.962 151.697 76.255 L 150.989 75.547 150.989 63.327 C 150.989 49.907,150.931 50.419,152.521 49.760 C 152.802 49.644,161.098 49.571,170.957 49.599 L 188.882 49.649 190.695 51.436 M8.377 55.618 C 8.474 56.606,7.127 59.658,6.484 59.905 C 5.794 60.169,5.297 59.270,5.481 58.088 C 5.887 55.478,8.172 53.529,8.377 55.618 M36.137 61.639 C 40.416 62.916,41.857 67.644,39.050 71.195 C 37.484 73.177,37.636 73.261,42.801 73.261 C 46.932 73.261,47.735 73.632,47.735 75.540 C 47.735 77.006,47.130 77.203,42.156 77.359 C 35.993 77.552,36.376 77.130,36.560 83.530 C 36.671 87.400,36.685 87.478,38.502 94.319 C 40.731 102.710,40.772 103.511,39.011 104.125 C 37.349 104.705,36.409 103.647,35.490 100.165 C 34.608 96.828,34.227 96.881,33.174 100.490 C 32.146 104.009,30.495 105.225,29.119 103.475 C 28.329 102.471,28.430 101.727,30.376 94.272 L 32.162 87.428 32.163 82.801 C 32.164 77.013,32.657 77.510,26.741 77.345 L 22.162 77.218 21.547 76.501 C 20.770 75.597,20.770 75.009,21.547 74.105 L 22.163 73.389 26.258 73.261 C 31.091 73.110,31.283 73.016,29.969 71.449 C 25.918 66.620,30.170 59.859,36.137 61.639 M6.395 62.939 C 6.869 63.511,7.148 65.961,6.859 67.011 C 6.523 68.225,5.726 68.227,5.220 67.015 C 4.304 64.824,5.247 61.556,6.395 62.939 M8.011 71.928 C 8.998 73.838,9.092 75.814,8.196 75.814 C 7.196 75.814,6.126 73.984,6.126 72.274 C 6.126 70.569,7.207 70.371,8.011 71.928 M10.983 78.021 C 13.583 79.754,14.570 81.685,12.854 81.685 C 11.211 81.685,8.716 78.670,9.615 77.771 C 9.890 77.496,10.310 77.572,10.983 78.021 M51.861 82.284 C 52.751 82.755,53.908 83.280,54.434 83.453 C 55.493 83.799,56.304 84.705,55.909 85.099 C 55.283 85.725,49.042 85.507,48.238 84.830 C 46.970 83.763,47.311 82.394,49.016 81.714 C 49.972 81.333,50.117 81.362,51.861 82.284 M20.461 82.472 C 21.369 82.958,20.968 83.841,19.794 83.937 C 17.676 84.110,15.807 83.279,16.173 82.327 C 16.369 81.816,19.429 81.920,20.461 82.472 M108.560 84.816 C 108.938 85.063,109.507 85.810,109.825 86.475 C 110.285 87.438,110.650 87.802,111.622 88.266 C 112.634 88.750,112.952 89.081,113.489 90.216 C 114.044 91.389,114.300 91.646,115.290 92.024 C 117.520 92.876,117.420 92.134,117.417 107.849 C 117.414 122.746,117.421 122.674,116.049 123.156 C 115.441 123.370,115.133 123.298,114.139 122.709 C 108.493 119.361,105.976 119.496,100.653 123.429 C 97.746 125.577,97.570 125.856,98.174 127.363 C 98.467 128.098,98.549 128.780,98.440 129.581 C 98.261 130.881,98.413 131.258,99.849 133.074 C 101.189 134.769,101.127 135.804,99.706 135.447 C 98.837 135.229,97.768 134.054,97.076 132.557 C 96.734 131.815,96.043 130.895,95.515 130.477 C 94.838 129.940,94.478 129.392,94.254 128.552 L 93.939 127.377 92.205 127.377 C 88.812 127.377,85.431 125.998,83.275 123.736 C 82.611 123.040,80.494 120.899,78.572 118.978 C 74.529 114.941,74.537 114.956,74.537 111.295 C 74.537 107.336,74.507 107.282,71.753 106.416 C 69.447 105.691,69.862 104.403,72.402 104.403 C 74.593 104.403,74.537 104.648,74.538 94.966 C 74.538 85.563,74.607 85.160,76.324 84.567 C 77.937 84.010,107.681 84.239,108.560 84.816 M59.977 87.203 C 60.990 88.056,61.519 89.082,61.519 90.196 C 61.519 92.084,60.045 91.356,58.864 88.884 C 57.792 86.642,58.335 85.822,59.977 87.203 M166.465 88.489 C 166.932 89.051,166.924 92.452,166.455 93.017 C 165.421 94.263,164.545 92.953,164.702 90.397 C 164.826 88.368,165.637 87.491,166.465 88.489 M62.190 94.336 C 62.851 95.343,63.008 98.722,62.405 98.953 C 61.248 99.397,60.057 96.129,60.758 94.435 C 61.142 93.509,61.627 93.476,62.190 94.336 M166.168 96.473 C 166.953 97.939,166.262 101.213,165.167 101.213 C 164.346 101.213,164.070 100.145,164.385 98.188 C 164.723 96.090,165.542 95.303,166.168 96.473 M65.651 101.932 C 67.499 103.197,68.269 104.255,67.645 104.672 C 66.267 105.593,62.282 102.446,63.289 101.232 C 63.756 100.670,63.842 100.695,65.651 101.932 M165.466 104.548 C 165.870 105.435,165.373 108.384,164.709 109.049 C 163.615 110.143,162.921 108.805,163.366 106.460 C 163.817 104.090,164.835 103.163,165.466 104.548 M163.829 112.112 C 164.907 113.190,163.052 117.813,161.919 116.873 C 161.469 116.499,161.493 114.932,161.969 113.583 C 162.576 111.863,163.136 111.420,163.829 112.112 M161.666 120.264 C 162.005 121.563,160.395 124.654,159.449 124.520 C 158.726 124.416,158.615 123.529,159.151 122.126 C 159.964 119.998,161.331 118.986,161.666 120.264 M158.126 127.343 C 158.561 128.714,155.932 131.976,154.754 131.528 C 153.985 131.236,154.624 129.549,156.139 127.872 C 157.119 126.787,157.885 126.583,158.126 127.343 M153.414 133.631 C 153.414 135.040,149.956 137.558,149.141 136.743 C 148.638 136.239,148.974 135.658,150.627 134.172 C 152.182 132.774,153.414 132.535,153.414 133.631 M105.596 137.057 C 107.270 137.849,107.914 138.570,107.403 139.080 C 106.308 140.175,101.919 137.842,102.885 136.678 C 103.324 136.149,103.824 136.219,105.596 137.057 M146.990 138.185 C 147.245 139.531,143.281 141.451,142.071 140.567 C 141.335 140.029,141.977 139.196,143.798 138.327 C 145.561 137.486,146.846 137.429,146.990 138.185 M113.945 139.458 C 116.574 140.253,115.659 141.971,112.904 141.414 C 110.729 140.974,109.673 140.062,110.445 139.290 C 110.710 139.024,112.849 139.127,113.945 139.458 M139.117 140.520 C 139.895 141.458,138.286 142.438,135.968 142.438 C 134.512 142.438,133.883 142.054,134.160 141.334 C 134.510 140.420,138.491 139.767,139.117 140.520 M122.469 140.669 C 124.340 141.321,123.643 142.438,121.364 142.438 C 118.942 142.438,117.865 141.859,118.280 140.779 C 118.458 140.315,121.243 140.242,122.469 140.669 M130.761 141.045 C 131.361 141.275,131.534 141.964,131.101 142.397 C 130.123 143.375,125.939 142.826,126.147 141.747 C 126.335 140.771,128.993 140.367,130.761 141.045  M -25 0 L -5 0 L -5 20 L -25 20 Z M 405 0 L 425 0 L 425 20 L 405 20 Z" stroke="none" fill="#fbfbfb" fill-rule="evenodd" transform="translate(950,0)"></path><path id="path3" d=" M -25 0 L -5 0 L -5 20 L -25 20 Z M 405 0 L 425 0 L 425 20 L 405 20 Z" stroke="none" fill="#2ca2ba" fill-rule="evenodd" transform="translate(30,315)"></path><path id="path4" d="M276.962 5.389 C 238.344 9.770,214.069 50.888,228.981 86.663 C 229.566 88.067,230.235 89.755,230.466 90.414 C 230.971 91.852,230.920 91.835,235.569 92.162 C 252.178 93.330,268.971 101.744,277.777 113.311 L 278.437 114.177 278.625 113.311 C 279.068 111.265,282.422 105.886,285.737 101.905 C 298.833 86.175,318.732 78.201,339.183 80.488 C 340.928 80.683,341.034 80.666,341.034 80.189 C 341.034 79.911,341.260 78.726,341.537 77.557 C 350.880 38.111,317.486 0.791,276.962 5.389  M -25 0 L -5 0 L -5 20 L -25 20 Z M 405 0 L 425 0 L 425 20 L 405 20 Z" stroke="none" fill="#fb7c7c" fill-rule="evenodd" transform="translate(490,315)"></path><path id="path5" d="M77.018 86.101 C 76.084 86.446,76.077 86.549,76.073 100.263 C 76.068 116.163,75.507 114.010,81.079 119.479 C 88.989 127.241,92.126 127.775,99.170 122.557 C 105.233 118.066,108.872 117.544,113.337 120.525 C 115.932 122.258,115.751 123.160,115.833 108.077 C 115.914 93.279,115.984 94.070,114.542 93.448 C 113.279 92.902,112.736 92.350,112.201 91.069 C 111.911 90.376,111.496 89.980,110.595 89.538 C 109.682 89.089,109.239 88.661,108.806 87.810 C 108.490 87.188,108.078 86.527,107.892 86.340 C 107.504 85.953,78.036 85.724,77.018 86.101 M230.911 92.311 C 231.674 95.472,237.181 102.984,242.310 107.860 C 250.078 115.246,259.293 120.229,270.170 122.925 C 272.443 123.488,274.146 124.069,274.916 124.542 C 276.873 125.746,282.505 126.180,284.259 125.261 L 284.889 124.931 283.196 122.134 C 282.265 120.595,281.014 118.647,280.417 117.805 C 279.819 116.962,279.017 115.609,278.635 114.797 C 277.794 113.014,273.476 108.415,269.983 105.582 C 260.113 97.576,248.575 93.077,235.569 92.162 C 233.651 92.027,231.779 91.841,231.408 91.748 C 230.772 91.588,230.744 91.619,230.911 92.311  M -25 0 L -5 0 L -5 20 L -25 20 Z M 405 0 L 425 0 L 425 20 L 405 20 Z" stroke="none" fill="#eec453" fill-rule="evenodd" transform="translate(950,315)"></path><path id="path6" d="M76.305 86.172 L 75.686 86.831 75.633 100.021 C 75.598 108.614,75.672 113.501,75.845 114.044 C 76.335 115.578,85.113 124.151,87.211 125.145 C 91.264 127.065,94.819 126.344,99.936 122.563 C 105.046 118.789,108.197 118.296,112.641 120.576 C 116.627 122.622,116.401 123.401,116.399 107.626 C 116.398 93.639,116.433 93.916,114.518 93.069 C 113.342 92.549,113.092 92.300,112.513 91.077 C 112.008 90.011,111.648 89.598,110.999 89.341 C 109.796 88.864,109.304 88.383,108.758 87.147 C 108.004 85.444,108.714 85.514,92.084 85.514 L 76.924 85.514 76.305 86.172 M107.892 86.340 C 108.078 86.527,108.490 87.188,108.806 87.810 C 109.239 88.661,109.682 89.089,110.595 89.538 C 111.496 89.980,111.911 90.376,112.201 91.069 C 112.736 92.350,113.279 92.902,114.542 93.448 C 115.984 94.070,115.914 93.279,115.833 108.077 C 115.751 123.160,115.932 122.258,113.337 120.525 C 108.872 117.544,105.233 118.066,99.170 122.557 C 92.126 127.775,88.989 127.241,81.079 119.479 C 75.507 114.010,76.068 116.163,76.073 100.263 C 76.077 86.549,76.084 86.446,77.018 86.101 C 78.036 85.724,107.504 85.953,107.892 86.340 M229.942 92.032 C 229.867 92.107,228.211 92.344,226.262 92.558 C 205.043 94.892,187.487 107.120,178.289 125.973 C 160.095 163.265,184.694 207.358,226.077 211.632 C 232.606 212.306,243.716 210.736,251.567 208.029 C 266.673 202.820,282.999 187.796,285.018 177.247 C 285.225 176.162,285.859 173.945,286.425 172.321 C 291.175 158.697,291.146 144.266,286.343 131.706 C 285.992 130.787,285.626 129.524,285.530 128.898 C 285.266 127.166,284.807 125.080,284.691 125.080 C 284.633 125.080,284.372 125.195,284.109 125.335 C 282.522 126.185,276.781 125.690,274.916 124.542 C 274.146 124.069,272.443 123.488,270.170 122.925 C 259.293 120.229,250.078 115.246,242.310 107.860 C 237.211 103.012,232.056 95.992,230.915 92.342 C 230.782 91.916,230.233 91.741,229.942 92.032  M -25 0 L -5 0 L -5 20 L -25 20 Z M 405 0 L 425 0 L 425 20 L 405 20 Z" stroke="none" fill="#ecf481" fill-rule="evenodd" transform="translate(30,630)"></path><path id="path7" d="M111.080 5.090 C 110.029 5.356,109.648 5.712,109.851 6.241 C 110.175 7.085,112.093 7.384,113.926 6.875 C 116.714 6.101,113.947 4.365,111.080 5.090 M118.067 5.196 C 116.867 6.074,118.482 6.989,120.963 6.836 C 122.955 6.714,123.714 6.066,122.766 5.297 C 122.072 4.734,118.796 4.663,118.067 5.196 M126.165 5.274 C 125.497 5.544,125.810 6.575,126.649 6.867 C 129.373 7.816,132.917 6.351,130.303 5.357 C 129.627 5.100,126.740 5.042,126.165 5.274 M103.163 5.615 C 101.542 5.998,101.151 7.217,102.537 7.565 C 103.445 7.793,105.953 7.450,106.632 7.005 C 108.334 5.890,105.984 4.949,103.163 5.615 M133.786 6.222 C 133.058 7.098,134.303 7.901,136.702 8.101 C 138.339 8.238,139.033 7.884,138.721 7.072 C 138.348 6.099,134.445 5.427,133.786 6.222 M95.238 6.715 C 93.378 7.367,93.484 8.680,95.397 8.678 C 97.829 8.675,99.781 7.654,99.047 6.769 C 98.656 6.298,96.514 6.268,95.238 6.715 M141.774 8.016 C 141.534 8.640,142.314 9.363,143.736 9.835 C 145.331 10.365,146.394 10.262,146.394 9.577 C 146.394 8.471,142.149 7.037,141.774 8.016 M87.811 8.734 C 86.618 9.339,86.151 10.264,86.894 10.549 C 87.406 10.745,89.638 10.155,90.487 9.599 C 92.271 8.430,89.913 7.668,87.811 8.734 M149.086 10.695 C 148.460 11.114,149.208 12.087,150.946 13.115 C 152.519 14.045,153.497 14.269,153.806 13.770 C 154.606 12.475,150.462 9.776,149.086 10.695 M81.940 11.383 C 80.030 12.209,78.503 14.550,79.875 14.550 C 80.582 14.550,83.582 12.465,83.688 11.900 C 83.852 11.021,83.213 10.832,81.940 11.383 M155.575 15.075 C 155.232 15.630,155.742 16.547,157.113 17.843 C 159.316 19.927,160.726 19.229,159.033 16.892 C 157.860 15.273,156.043 14.318,155.575 15.075 M76.657 16.647 C 76.361 16.968,75.868 17.770,75.561 18.430 C 74.654 20.383,75.181 20.279,65.373 20.421 C 53.578 20.592,54.820 19.402,54.636 30.705 C 54.491 39.587,54.496 39.552,53.279 39.562 C 53.029 39.564,52.167 39.839,51.364 40.173 C 50.561 40.506,49.368 40.856,48.713 40.951 C 46.947 41.205,46.306 42.437,47.787 42.730 C 48.109 42.793,49.119 43.030,50.032 43.256 C 50.944 43.482,52.208 43.789,52.840 43.938 C 54.415 44.309,54.623 44.672,54.647 47.081 C 54.683 50.688,54.705 50.724,59.922 56.003 C 66.776 62.936,69.907 64.269,75.066 62.448 C 76.666 61.883,77.545 61.340,81.521 58.462 C 85.649 55.475,89.086 55.338,93.327 57.991 C 97.183 60.403,97.113 60.645,97.201 44.436 C 97.285 28.773,97.353 29.331,95.228 28.296 C 94.036 27.715,93.758 27.436,93.271 26.332 C 92.797 25.259,92.498 24.947,91.470 24.456 C 90.483 23.985,90.120 23.625,89.659 22.659 C 88.710 20.674,88.396 20.568,83.049 20.421 C 78.042 20.284,77.731 20.197,77.824 18.962 C 78.050 15.954,77.784 15.427,76.657 16.647 M77.570 20.996 C 78.433 21.532,78.795 21.572,83.027 21.596 C 88.081 21.625,88.128 21.640,88.945 23.452 C 89.256 24.141,89.764 24.642,90.687 25.169 C 91.674 25.732,92.149 26.222,92.645 27.187 C 93.139 28.149,93.564 28.589,94.380 28.981 C 94.974 29.267,95.578 29.618,95.722 29.761 C 96.019 30.059,96.165 57.183,95.872 57.658 C 95.549 58.181,94.812 57.958,93.412 56.913 C 89.240 53.800,85.186 54.326,79.386 58.731 C 75.804 61.453,74.732 61.888,71.596 61.896 C 67.651 61.905,66.678 61.337,60.921 55.667 C 55.573 50.399,55.829 50.787,55.867 48.024 C 55.917 44.356,55.423 43.404,53.272 43.027 C 50.831 42.598,50.980 41.029,53.507 40.557 C 55.846 40.119,55.927 39.756,55.856 30.054 C 55.807 23.377,55.850 22.407,56.209 22.048 C 56.567 21.690,57.703 21.634,65.261 21.604 C 73.739 21.571,73.921 21.559,74.795 21.000 C 75.920 20.280,76.418 20.279,77.570 20.996 M160.822 22.017 C 160.834 23.723,162.247 26.037,163.277 26.037 C 164.531 26.037,164.291 23.898,162.839 22.137 C 161.791 20.866,160.814 20.807,160.822 22.017 M164.206 28.546 C 163.657 28.885,163.621 30.010,164.097 31.976 C 164.566 33.911,164.566 33.979,164.101 34.847 C 162.676 37.506,165.162 40.452,167.083 38.380 C 168.004 37.387,167.947 35.852,166.943 34.588 C 166.308 33.789,166.177 33.392,166.177 32.261 C 166.177 30.048,165.090 28.000,164.206 28.546 M65.867 32.147 C 65.521 32.795,65.506 55.440,65.852 56.645 C 66.483 58.848,71.093 60.263,74.027 59.155 C 75.404 58.635,77.304 57.615,77.884 57.084 C 81.913 53.397,86.889 52.005,91.201 53.356 C 93.226 53.991,93.287 53.988,93.641 53.211 C 94.144 52.108,94.051 32.950,93.540 32.220 L 93.143 31.653 79.637 31.653 C 66.546 31.653,66.123 31.668,65.867 32.147 M166.542 35.883 C 167.286 36.626,166.824 38.034,165.837 38.034 C 165.074 38.034,164.646 37.575,164.646 36.758 C 164.646 35.565,165.726 35.067,166.542 35.883 M39.879 41.618 C 38.201 42.292,39.064 43.395,41.269 43.395 C 43.658 43.395,45.016 42.565,44.110 41.659 C 43.751 41.300,40.743 41.271,39.879 41.618 M33.407 42.118 C 31.185 42.503,30.365 43.562,31.787 44.210 C 32.671 44.613,35.399 44.102,36.099 43.402 C 37.071 42.430,35.616 41.736,33.407 42.118 M24.888 43.785 C 24.327 43.988,23.843 44.155,23.812 44.157 C 23.484 44.180,23.243 45.274,23.498 45.581 C 24.086 46.290,27.300 45.673,28.200 44.679 C 29.235 43.536,27.146 42.972,24.888 43.785 M17.741 46.187 C 15.776 47.070,15.214 48.500,16.832 48.500 C 18.575 48.500,21.297 46.746,20.801 45.942 C 20.557 45.548,18.861 45.684,17.741 46.187 M11.041 50.072 C 8.910 51.711,8.593 53.928,10.632 52.936 C 11.799 52.369,13.784 50.382,13.784 49.781 C 13.784 48.941,12.310 49.097,11.041 50.072 M152.521 49.760 C 150.931 50.419,150.989 49.907,150.989 63.327 L 150.989 75.547 151.697 76.255 L 152.405 76.962 171.541 77.031 C 192.862 77.107,192.146 77.160,192.862 75.448 C 193.407 74.143,193.416 54.942,192.871 53.912 C 192.671 53.533,191.692 52.419,190.695 51.436 L 188.882 49.649 170.957 49.599 C 161.098 49.571,152.802 49.644,152.521 49.760 M185.733 51.970 C 186.030 52.050,186.535 52.594,186.855 53.179 C 187.569 54.482,188.367 55.392,188.795 55.392 C 188.971 55.392,189.525 55.779,190.026 56.252 L 190.938 57.112 190.938 65.174 C 190.938 73.918,190.880 74.330,189.588 74.780 C 188.293 75.232,155.411 75.142,154.314 74.684 C 152.941 74.110,152.870 73.488,152.956 62.725 C 153.035 52.784,153.092 52.277,154.173 51.984 C 154.777 51.820,185.125 51.807,185.733 51.970 M7.245 54.924 C 6.014 55.518,4.976 58.626,5.689 59.582 C 6.256 60.343,6.835 59.911,7.687 58.091 C 8.794 55.726,8.591 54.275,7.245 54.924 M33.057 61.502 C 28.424 62.630,26.843 67.723,29.969 71.449 C 31.283 73.016,31.091 73.110,26.258 73.261 L 22.163 73.389 21.547 74.105 C 20.770 75.009,20.770 75.597,21.547 76.501 L 22.162 77.218 26.741 77.345 C 32.657 77.510,32.164 77.013,32.163 82.801 L 32.162 87.428 30.376 94.272 C 28.430 101.727,28.329 102.471,29.119 103.475 C 30.495 105.225,32.146 104.009,33.174 100.490 C 34.227 96.881,34.608 96.828,35.490 100.165 C 36.409 103.647,37.349 104.705,39.011 104.125 C 40.772 103.511,40.731 102.710,38.502 94.319 C 36.685 87.478,36.671 87.400,36.560 83.530 C 36.376 77.130,35.993 77.552,42.156 77.359 C 47.130 77.203,47.735 77.006,47.735 75.540 C 47.735 73.632,46.932 73.261,42.801 73.261 C 37.636 73.261,37.484 73.177,39.050 71.195 C 42.681 66.601,38.682 60.133,33.057 61.502 M5.247 63.107 C 4.385 64.338,5.020 67.900,6.101 67.900 C 6.802 67.900,7.158 66.514,6.916 64.730 C 6.636 62.672,5.991 62.045,5.247 63.107 M35.793 62.806 C 39.661 63.881,40.420 68.142,37.285 71.179 C 34.678 73.706,35.623 74.537,41.102 74.537 C 44.663 74.537,45.692 74.733,45.692 75.412 C 45.692 75.978,45.071 76.069,41.192 76.069 C 35.446 76.069,35.227 76.294,35.227 82.163 C 35.227 86.291,35.314 86.781,37.777 96.490 C 39.082 101.635,39.146 102.361,38.296 102.361 C 37.565 102.361,37.158 101.549,36.376 98.532 C 35.081 93.529,33.841 92.884,32.797 96.672 C 31.476 101.466,31.274 101.976,30.661 102.063 C 29.861 102.178,29.960 101.250,31.340 95.724 C 33.540 86.914,33.567 86.749,33.567 82.298 C 33.567 76.174,33.467 76.069,27.630 76.069 C 23.445 76.069,22.264 75.753,23.342 74.920 C 23.733 74.618,24.663 74.537,27.757 74.537 C 31.578 74.537,31.692 74.522,32.303 73.911 C 33.160 73.053,33.121 72.916,31.560 71.264 C 27.585 67.058,30.456 61.324,35.793 62.806 M33.332 66.346 C 32.272 67.518,33.644 69.370,35.030 68.640 C 35.349 68.472,35.694 68.208,35.797 68.054 C 36.727 66.661,34.465 65.095,33.332 66.346 M6.421 71.027 C 5.739 71.709,6.197 74.159,7.209 75.239 C 8.377 76.487,9.183 75.646,8.665 73.720 C 8.082 71.552,7.088 70.359,6.421 71.027 M9.615 77.771 C 8.716 78.670,11.211 81.685,12.854 81.685 C 14.183 81.685,14.124 80.839,12.699 79.478 C 10.969 77.825,10.062 77.323,9.615 77.771 M341.953 80.340 L 341.212 80.728 341.999 81.059 C 342.432 81.241,344.376 81.789,346.319 82.277 C 380.090 90.757,399.385 125.816,388.489 158.896 C 382.449 177.231,367.106 192.079,348.906 197.203 C 347.595 197.572,345.718 198.143,344.735 198.471 C 339.935 200.075,328.348 200.347,321.378 199.018 C 308.843 196.629,297.999 190.892,289.523 182.165 C 285.697 178.226,285.498 177.448,287.183 172.978 C 292.221 159.607,292.183 144.646,287.074 130.997 C 286.426 129.268,285.894 127.717,285.890 127.551 C 285.886 127.385,285.655 126.790,285.376 126.228 C 285.045 125.562,284.915 125.429,285.000 125.846 C 285.073 126.197,285.258 127.276,285.412 128.244 C 285.566 129.212,285.982 130.763,286.337 131.690 C 291.146 144.269,291.177 158.690,286.425 172.321 C 285.859 173.945,285.225 176.162,285.018 177.247 C 283.911 183.032,276.027 193.136,267.795 199.320 C 258.699 206.153,248.777 210.008,237.499 211.091 C 231.849 211.633,230.838 211.958,232.431 212.718 C 233.353 213.157,233.642 213.562,236.413 218.285 C 253.228 246.949,291.869 255.882,320.102 237.632 C 332.898 229.360,340.886 218.147,345.777 201.590 C 346.368 199.589,347.262 198.859,350.390 197.820 C 388.990 185.002,404.648 140.009,382.233 106.318 C 374.127 94.134,361.187 85.033,346.812 81.407 C 345.108 80.977,343.533 80.462,343.311 80.262 C 342.845 79.841,342.912 79.837,341.953 80.340 M49.016 81.714 C 47.311 82.394,46.970 83.763,48.238 84.830 C 49.042 85.507,55.283 85.725,55.909 85.099 C 56.304 84.705,55.493 83.799,54.434 83.453 C 53.908 83.280,52.751 82.755,51.861 82.284 C 50.117 81.362,49.972 81.333,49.016 81.714 M16.173 82.327 C 15.807 83.279,17.676 84.110,19.794 83.937 C 20.968 83.841,21.369 82.958,20.461 82.472 C 19.429 81.920,16.369 81.816,16.173 82.327 M50.663 83.052 C 51.192 83.439,51.056 84.154,50.404 84.404 C 49.798 84.637,48.756 84.065,48.756 83.498 C 48.756 82.711,49.847 82.455,50.663 83.052 M58.284 86.940 C 58.198 87.164,58.459 88.038,58.864 88.884 C 60.045 91.356,61.519 92.084,61.519 90.196 C 61.519 88.195,58.838 85.497,58.284 86.940 M165.283 88.418 C 164.248 89.175,164.542 93.427,165.629 93.427 C 166.482 93.427,166.795 92.717,166.805 90.759 C 166.818 88.384,166.339 87.646,165.283 88.418 M60.758 94.435 C 60.057 96.129,61.248 99.397,62.405 98.953 C 62.803 98.800,62.846 98.534,62.740 96.883 C 62.560 94.081,61.465 92.729,60.758 94.435 M164.922 96.337 C 163.931 97.531,164.116 101.213,165.167 101.213 C 166.001 101.213,166.424 100.285,166.429 98.452 C 166.434 96.314,165.745 95.346,164.922 96.337 M63.289 101.232 C 62.282 102.446,66.267 105.593,67.645 104.672 C 68.269 104.255,67.499 103.197,65.651 101.932 C 63.842 100.695,63.756 100.670,63.289 101.232 M74.086 103.893 C 73.832 104.299,73.491 104.403,72.414 104.403 C 69.863 104.403,69.441 105.689,71.753 106.416 C 73.762 107.048,74.076 107.216,74.210 107.728 C 74.526 108.938,75.814 107.396,75.814 105.807 C 75.814 104.110,74.712 102.890,74.086 103.893 M164.016 104.482 C 163.093 105.891,162.963 109.043,163.815 109.370 C 164.525 109.642,165.169 108.679,165.476 106.886 C 165.906 104.377,165.030 102.934,164.016 104.482 M162.638 112.147 C 161.742 113.227,161.269 116.334,161.919 116.873 C 162.730 117.546,164.135 115.228,164.135 113.216 C 164.135 111.995,163.275 111.381,162.638 112.147 M160.085 120.372 C 158.785 122.025,158.425 124.374,159.449 124.520 C 160.112 124.614,160.840 123.674,161.410 121.987 C 162.097 119.957,161.236 118.909,160.085 120.372 M96.107 125.321 C 94.667 125.661,92.500 127.377,93.511 127.377 C 93.804 127.377,94.038 127.747,94.254 128.552 C 94.478 129.392,94.838 129.940,95.515 130.477 C 96.043 130.895,96.734 131.815,97.076 132.557 C 97.768 134.054,98.837 135.229,99.706 135.447 C 101.127 135.804,101.189 134.769,99.849 133.074 C 98.413 131.258,98.261 130.881,98.440 129.581 C 98.549 128.785,98.468 128.098,98.180 127.380 C 97.950 126.805,97.827 126.078,97.905 125.764 C 98.066 125.124,97.517 124.989,96.107 125.321 M97.151 127.503 C 97.920 128.677,97.089 130.013,95.964 129.411 C 94.939 128.862,95.153 126.867,96.238 126.867 C 96.511 126.867,96.921 127.153,97.151 127.503 M156.139 127.872 C 154.624 129.549,153.985 131.236,154.754 131.528 C 155.932 131.976,158.561 128.714,158.126 127.343 C 157.885 126.583,157.119 126.787,156.139 127.872 M150.627 134.172 C 148.974 135.658,148.638 136.239,149.141 136.743 C 149.667 137.269,151.009 136.674,152.371 135.313 C 154.645 133.038,153.049 131.994,150.627 134.172 M102.885 136.678 C 101.919 137.842,106.308 140.175,107.403 139.080 C 107.914 138.570,107.270 137.849,105.596 137.057 C 103.824 136.219,103.324 136.149,102.885 136.678 M143.798 138.327 C 141.977 139.196,141.335 140.029,142.071 140.567 C 143.281 141.451,147.245 139.531,146.990 138.185 C 146.846 137.429,145.561 137.486,143.798 138.327 M110.445 139.290 C 109.673 140.062,110.729 140.974,112.904 141.414 C 115.659 141.971,116.574 140.253,113.945 139.458 C 112.849 139.127,110.710 139.024,110.445 139.290 M136.439 140.314 C 134.385 140.776,133.687 141.353,134.296 142.087 C 134.686 142.557,137.095 142.544,138.238 142.066 C 140.510 141.117,139.077 139.722,136.439 140.314 M118.280 140.779 C 117.865 141.859,118.942 142.438,121.364 142.438 C 123.049 142.438,123.693 142.091,123.404 141.339 C 123.056 140.430,118.601 139.943,118.280 140.779 M126.869 140.964 C 125.191 141.856,126.803 143.101,129.361 142.889 C 130.816 142.769,131.578 142.272,131.323 141.609 C 131.021 140.821,127.969 140.379,126.869 140.964  M -25 0 L -5 0 L -5 20 L -25 20 Z M 405 0 L 425 0 L 425 20 L 405 20 Z" stroke="none" fill="#cbe3cc" fill-rule="evenodd" transform="translate(490,630)"></path><path id="path8" d="M280.664 3.491 C 238.865 6.119,211.886 48.207,227.301 86.737 C 229.139 91.331,229.142 91.733,227.336 92.165 L 226.548 92.354 227.519 92.380 C 230.928 92.471,231.195 91.944,229.613 88.241 C 210.609 43.752,248.504 -3.192,295.785 6.269 C 328.041 12.723,349.116 45.560,341.537 77.557 C 340.867 80.388,340.875 80.746,341.608 80.526 C 342.602 80.228,342.770 79.852,343.428 76.452 C 350.489 39.941,324.745 6.209,287.811 3.578 C 284.355 3.331,283.386 3.320,280.664 3.491 M154.173 51.984 C 153.092 52.277,153.035 52.784,152.956 62.725 C 152.870 73.488,152.941 74.110,154.314 74.684 C 155.411 75.142,188.293 75.232,189.588 74.780 C 190.880 74.330,190.938 73.918,190.938 65.174 L 190.938 57.112 190.026 56.252 C 189.525 55.779,188.971 55.392,188.795 55.392 C 188.367 55.392,187.569 54.482,186.855 53.179 C 186.535 52.594,186.030 52.050,185.733 51.970 C 185.125 51.807,154.777 51.820,154.173 51.984 M76.324 84.567 C 74.607 85.160,74.538 85.561,74.538 94.983 C 74.537 102.908,74.561 103.325,75.035 103.754 C 75.528 104.199,75.534 104.111,75.609 95.517 L 75.686 86.830 76.305 86.172 L 76.924 85.514 92.084 85.514 C 108.714 85.514,108.004 85.444,108.758 87.147 C 109.304 88.383,109.796 88.864,110.999 89.341 C 111.648 89.598,112.008 90.011,112.513 91.077 C 113.092 92.300,113.342 92.549,114.518 93.069 C 116.433 93.916,116.398 93.639,116.399 107.626 C 116.401 123.375,116.617 122.616,112.704 120.608 C 108.520 118.461,105.191 118.771,101.177 121.683 C 100.074 122.483,98.462 123.620,97.597 124.208 L 96.024 125.278 97.153 125.223 C 98.111 125.177,98.660 124.891,100.768 123.339 C 105.980 119.504,108.531 119.383,114.139 122.709 C 115.133 123.298,115.441 123.370,116.049 123.156 C 117.421 122.674,117.414 122.746,117.417 107.849 C 117.420 92.134,117.520 92.876,115.290 92.024 C 114.300 91.646,114.044 91.389,113.489 90.216 C 112.952 89.081,112.634 88.750,111.622 88.266 C 110.650 87.802,110.285 87.438,109.825 86.475 C 108.751 84.229,109.898 84.372,92.545 84.312 C 81.103 84.272,76.991 84.337,76.324 84.567 M224.825 92.586 C 225.140 92.647,225.657 92.647,225.973 92.586 C 226.289 92.525,226.031 92.475,225.399 92.475 C 224.767 92.475,224.509 92.525,224.825 92.586 M222.910 92.837 C 223.156 92.901,223.558 92.901,223.803 92.837 C 224.049 92.773,223.848 92.720,223.357 92.720 C 222.865 92.720,222.664 92.773,222.910 92.837 M218.615 93.548 C 200.927 97.643,185.931 109.611,178.025 125.942 C 176.484 129.126,174.586 133.943,174.614 134.601 C 174.621 134.770,175.081 133.644,175.636 132.100 C 182.673 112.526,199.313 97.960,219.655 93.567 C 221.200 93.233,222.176 92.958,221.825 92.956 C 221.474 92.954,220.030 93.220,218.615 93.548 M74.984 107.905 C 74.461 108.484,74.331 113.528,74.807 114.778 C 74.955 115.168,76.649 117.058,78.572 118.978 C 80.494 120.899,82.611 123.040,83.275 123.736 C 86.168 126.772,92.069 128.428,93.749 126.675 L 94.421 125.973 91.691 125.973 C 87.447 125.973,86.656 125.515,80.905 119.719 C 75.369 114.140,75.718 114.730,75.560 110.693 C 75.436 107.543,75.413 107.430,74.984 107.905 M174.236 135.691 C 174.143 136.066,174.115 136.421,174.175 136.481 C 174.235 136.541,174.361 136.284,174.455 135.910 C 174.549 135.536,174.577 135.181,174.517 135.121 C 174.456 135.061,174.330 135.317,174.236 135.691 M173.457 138.755 C 172.829 141.576,172.302 144.975,172.331 146.011 C 172.345 146.503,172.512 145.756,172.703 144.352 C 172.894 142.948,173.287 140.721,173.577 139.402 C 173.866 138.084,174.056 136.957,173.998 136.900 C 173.940 136.842,173.696 137.676,173.457 138.755 M172.156 152.138 C 172.156 155.016,172.193 156.193,172.239 154.754 C 172.284 153.315,172.284 150.960,172.239 149.521 C 172.193 148.082,172.156 149.260,172.156 152.138 M172.373 158.519 C 172.373 159.151,172.423 159.410,172.484 159.094 C 172.545 158.778,172.545 158.261,172.484 157.945 C 172.423 157.629,172.373 157.888,172.373 158.519 M172.618 160.562 C 172.618 161.053,172.671 161.254,172.735 161.008 C 172.799 160.763,172.799 160.361,172.735 160.115 C 172.671 159.869,172.618 160.070,172.618 160.562 M173.455 165.156 C 173.645 166.401,174.642 170.050,174.760 169.932 C 174.814 169.879,174.511 168.581,174.088 167.049 C 173.665 165.517,173.380 164.665,173.455 165.156 M174.868 170.462 C 174.789 172.656,180.291 183.197,184.286 188.503 C 192.161 198.963,207.224 208.808,217.869 210.453 C 218.430 210.539,217.569 210.214,215.954 209.730 C 196.840 203.998,182.757 191.021,175.891 172.814 C 175.335 171.340,174.875 170.282,174.868 170.462 M219.528 210.849 C 219.879 210.961,220.453 211.051,220.804 211.048 C 221.377 211.044,221.364 211.024,220.676 210.849 C 219.597 210.574,218.670 210.574,219.528 210.849 M223.421 211.535 C 223.666 211.599,224.068 211.599,224.314 211.535 C 224.560 211.471,224.359 211.419,223.867 211.419 C 223.376 211.419,223.175 211.471,223.421 211.535 M225.466 211.798 C 225.854 211.856,226.429 211.855,226.743 211.794 C 227.056 211.734,226.739 211.686,226.037 211.688 C 225.335 211.689,225.078 211.739,225.466 211.798 M228.398 212.057 C 228.995 212.110,229.971 212.110,230.568 212.057 C 231.165 212.003,230.676 211.959,229.483 211.959 C 228.290 211.959,227.802 212.003,228.398 212.057  M -25 0 L -5 0 L -5 20 L -25 20 Z M 405 0 L 425 0 L 425 20 L 405 20 Z" stroke="none" fill="#fbc7c6" fill-rule="evenodd" transform="translate(950,630)"></path></g></svg>